<svg id="Ebene_1" data-name="Ebene 1" xmlns="http://www.w3.org/2000/svg" viewBox="0 0 234.42 44.787"><defs><style>.cls-1{fill:#9c9585;}.cls-2{fill:#d1cbbf;}</style></defs><path class="cls-1" d="M25.107,39.459c0,.6-.264.718-.642.756a9.855,9.855,0,0,1-1.4.076c.076-.756.114-2.946.114-7.062V26.7c0-1.549-.227-2.417-.567-2.644v-.075a3.535,3.535,0,0,1,1.4-.718c.831,0,.982,1.775,1.019,3.059,1.511-1.586,3.588-3.1,5.816-3.1a4.5,4.5,0,0,1,4.608,3.134c1.548-1.662,3.625-3.134,6-3.134,3.588,0,5.25,2.492,5.25,6.684v5.967a36.5,36.5,0,0,0,.151,4.116,10.144,10.144,0,0,1-1.775.3c-.189,0-.3-.151-.3-.491V30.245c0-3.777-1.511-5.249-3.966-5.249-2.341,0-3.889,1.548-4.947,2.681L35.908,39.2c0,.793-.075.907-.642,1.02a11.305,11.305,0,0,1-1.4.076c.075-.756.113-2.946.113-7.062V30.207c0-3.625-1.36-5.211-3.852-5.211-2.115,0-4,1.7-5.023,2.907Z" transform="translate(-22.614 -14.383)"/><path class="cls-1" d="M64.837,38.969c.114,1.095-.717,1.548-1.7,1.548a2.337,2.337,0,0,1-2.266-2.643A7.017,7.017,0,0,1,55.7,40.517a3.9,3.9,0,0,1-4.078-3.89c0-4.23,5.966-5.362,7.4-5.74.681-.151,1.36-.3,1.851-.378l.038-1.548c0-1.964-1.02-4-3.55-4a6.627,6.627,0,0,0-4.154,1.7c-.529.3-1.02-.075-1.171-.868a8.224,8.224,0,0,1,5.627-2.568c4.192,0,5.174,3.134,5.174,6.231,0,1.662-.113,5.967-.038,8.157.038.982.453,1.435,1.209,1.435a2.245,2.245,0,0,0,.793-.151Zm-11.1-2.644a2.54,2.54,0,0,0,2.72,2.455,4.977,4.977,0,0,0,4.192-2.492,2.259,2.259,0,0,0,.226-1.209V31.907c-2.908.566-7.138,1.472-7.138,4.381Z" transform="translate(-22.614 -14.383)"/><path class="cls-1" d="M80.889,30.169c.038-3.587-1.511-5.211-4.078-5.211a6.851,6.851,0,0,0-5.25,3.059V39.271c0,.793-.189.906-.718.944-.415.076-.944.038-1.322.076.076-.756.114-2.946.114-7.062V26.7c0-1.586-.227-2.3-.567-2.606v-.113a3.4,3.4,0,0,1,1.36-.718c.906,0,1.057,2.077,1.057,3.059a8.6,8.6,0,0,1,5.93-3.1c3.89,0,5.4,2.605,5.4,6.8v5.815a37.121,37.121,0,0,0,.151,4.154,10.41,10.41,0,0,1-1.737.3c-.3,0-.377-.151-.377-.416Z" transform="translate(-22.614 -14.383)"/><path class="cls-1" d="M94.561,23.221a10.335,10.335,0,0,1,2.643.34,12.111,12.111,0,0,0,3.059.528,9.76,9.76,0,0,0,2.341-.264,1.877,1.877,0,0,1,.076.415c0,.906-.793,1.322-1.964,1.4-.3.037-1.057.037-1.321.037a6.542,6.542,0,0,1,.906,3.286,5.622,5.622,0,0,1-5.816,5.967,4.015,4.015,0,0,1-1.85-.227,6.154,6.154,0,0,0-1.4,1.473c0,.718.642,1.246,2.606,1.322,1.964.113,3.55.113,4.834.264,2.644.34,3.927,2,3.927,4.192,0,3.815-3.889,6.421-8.157,6.421-4.72,0-6.8-2.531-6.8-4.948,0-1.549,1.738-3.248,3.777-4.381a3.278,3.278,0,0,1-2.342-2.681c0-.189.039-.264.265-.378a13.28,13.28,0,0,0,2.039-1.737,5.327,5.327,0,0,1-2.87-4.947,5.919,5.919,0,0,1,6-6.08Zm-4.91,19.94c0,2.379,2.87,3.588,5.363,3.588,3.512,0,5.778-1.851,5.778-4.306,0-1.36-.6-2.606-2.946-2.908a26.348,26.348,0,0,0-3.739-.151,4.018,4.018,0,0,0-1.737.34c-1.322.68-2.719,2-2.719,3.4Zm4.8-18.581c-2.039,0-3.927,1.587-3.927,4.683,0,2.455,1.586,4.3,3.927,4.3,2.757,0,3.852-2.266,3.852-4.494,0-2.379-1.17-4.494-3.814-4.494Z" transform="translate(-22.614 -14.383)"/><path class="cls-1" d="M113.52,23.221c5.136,0,7.817,3.663,7.817,8.534,0,4.8-3.021,8.762-8.006,8.762-6.118,0-8.044-4.834-8.044-8.459,0-4.834,3.248-8.837,8.195-8.837Zm-.3,1.435c-2.719,0-5.778,2.19-5.778,7.062,0,4.834,2.8,7.364,6.118,7.364,2.191,0,5.628-1.511,5.628-7.213,0-3.7-1.851-7.213-5.93-7.213Z" transform="translate(-22.614 -14.383)"/><path class="cls-1" d="M128.7,39.459c0,.6-.264.718-.642.756a9.862,9.862,0,0,1-1.4.076c.076-.756.113-2.946.113-7.062V26.7c0-1.549-.226-2.417-.566-2.644v-.075a3.538,3.538,0,0,1,1.4-.718c.832,0,.982,1.775,1.02,3.059,1.511-1.586,3.588-3.1,5.816-3.1a4.5,4.5,0,0,1,4.607,3.134c1.549-1.662,3.626-3.134,6.006-3.134,3.588,0,5.249,2.492,5.249,6.684v5.967a36.759,36.759,0,0,0,.151,4.116,10.144,10.144,0,0,1-1.775.3c-.189,0-.3-.151-.3-.491V30.245c0-3.777-1.511-5.249-3.966-5.249-2.341,0-3.89,1.548-4.947,2.681L139.5,39.2c0,.793-.075.907-.642,1.02a11.288,11.288,0,0,1-1.4.076c.076-.756.114-2.946.114-7.062V30.207c0-3.625-1.36-5.211-3.852-5.211-2.116,0-4,1.7-5.023,2.907Z" transform="translate(-22.614 -14.383)"/><path class="cls-1" d="M163.825,23.221c5.136,0,7.818,3.663,7.818,8.534,0,4.8-3.022,8.762-8.006,8.762-6.118,0-8.044-4.834-8.044-8.459,0-4.834,3.247-8.837,8.194-8.837Zm-.3,1.435c-2.719,0-5.778,2.19-5.778,7.062,0,4.834,2.795,7.364,6.118,7.364,2.191,0,5.627-1.511,5.627-7.213,0-3.7-1.85-7.213-5.929-7.213Z" transform="translate(-22.614 -14.383)"/><path class="cls-1" d="M184.181,23.221c5.135,0,7.817,3.663,7.817,8.534,0,4.8-3.021,8.762-8.006,8.762-6.118,0-8.044-4.834-8.044-8.459,0-4.834,3.247-8.837,8.195-8.837Zm-.3,1.435c-2.72,0-5.778,2.19-5.778,7.062,0,4.834,2.795,7.364,6.118,7.364,2.19,0,5.627-1.511,5.627-7.213,0-3.7-1.851-7.213-5.93-7.213Z" transform="translate(-22.614 -14.383)"/><path class="cls-1" d="M208.691,30.169c.038-3.587-1.51-5.211-4.079-5.211a6.853,6.853,0,0,0-5.249,3.059V39.271c0,.793-.188.906-.717.944-.416.076-.945.038-1.322.076.075-.756.114-2.946.114-7.062V26.7c0-1.586-.227-2.3-.567-2.606v-.113a3.4,3.4,0,0,1,1.359-.718c.907,0,1.058,2.077,1.058,3.059a8.591,8.591,0,0,1,5.929-3.1c3.889,0,5.4,2.605,5.4,6.8v5.815a36.747,36.747,0,0,0,.152,4.154,10.436,10.436,0,0,1-1.738.3c-.3,0-.378-.151-.378-.416Z" transform="translate(-22.614 -14.383)"/><path class="cls-2" d="M228.52,31.3c2.908-2.417,7.062-6.458,8.761-8.081a3.7,3.7,0,0,1,1.322.188c.453.189.453.3-.793,1.511-1.511,1.435-4.532,4.117-6.949,6.307,1.813,2.115,7.251,7.628,8.951,8.724l-.039.113a3.182,3.182,0,0,1-1.472.3,2.829,2.829,0,0,1-1.776-.793c-1.586-1.322-6.5-6.307-8-8.044v7.629c0,.755-.189.944-.718,1.019a8.467,8.467,0,0,1-1.322.114c.076-1.511.114-3.739.114-6.874V19.066c0-2.228-.076-3.361-.152-4.191a4.738,4.738,0,0,1,1.662-.492c.264,0,.416.189.416,2.455Z" transform="translate(-22.614 -14.383)"/><path class="cls-2" d="M248.914,23.221a10.342,10.342,0,0,1,2.644.34,12.1,12.1,0,0,0,3.059.528,9.766,9.766,0,0,0,2.341-.264,1.937,1.937,0,0,1,.076.415c0,.906-.794,1.322-1.964,1.4-.3.037-1.057.037-1.322.037a6.532,6.532,0,0,1,.906,3.286,5.622,5.622,0,0,1-5.815,5.967,4.019,4.019,0,0,1-1.851-.227,6.164,6.164,0,0,0-1.4,1.473c0,.718.641,1.246,2.6,1.322,1.964.113,3.55.113,4.834.264,2.644.34,3.928,2,3.928,4.192,0,3.815-3.89,6.421-8.157,6.421-4.721,0-6.8-2.531-6.8-4.948,0-1.549,1.737-3.248,3.776-4.381a3.277,3.277,0,0,1-2.341-2.681c0-.189.038-.264.264-.378a13.29,13.29,0,0,0,2.04-1.737,5.325,5.325,0,0,1-2.87-4.947,5.919,5.919,0,0,1,6-6.08Zm-4.909,19.94c0,2.379,2.87,3.588,5.362,3.588,3.513,0,5.779-1.851,5.779-4.306,0-1.36-.6-2.606-2.946-2.908a26.353,26.353,0,0,0-3.739-.151,4.012,4.012,0,0,0-1.737.34c-1.322.68-2.719,2-2.719,3.4Zm4.8-18.581c-2.039,0-3.928,1.587-3.928,4.683,0,2.455,1.586,4.3,3.928,4.3,2.757,0,3.852-2.266,3.852-4.494,0-2.379-1.171-4.494-3.814-4.494Z" transform="translate(-22.614 -14.383)"/><path class="cls-2" d="M22.882,53.8c0-.709-.014-1.14-.014-1.362a2.424,2.424,0,0,1,.542-.084c.139,0,.181.1.181.584v4.712c0,.723.028,1.057.041,1.293a1.75,1.75,0,0,1-.542.084c-.125,0-.208-.028-.208-.209Z" transform="translate(-22.614 -14.383)"/><path class="cls-2" d="M25.648,52.984l-.375-.473v-.055a4.06,4.06,0,0,1,.626-.1c.083,0,.153.07.278.2.361.375,1.7,2.03,3.086,3.6.528.6,1.07,1.293,1.431,1.71-.041-.639-.027-1.1-.027-1.779V52.692c0-.236.041-.264.194-.292a2.4,2.4,0,0,1,.487-.042c-.014.445-.028,1.043-.028,1.919v4.629a.991.991,0,0,1-.417.125c-.111,0-.209-.07-.375-.278-.653-.779-1.863-2.155-3.086-3.628-.362-.445-.751-.974-1.2-1.5.056,1.2.056,1.793.056,2.334V58.7c0,.237-.07.264-.278.292a1.676,1.676,0,0,1-.4.042c.027-.445.027-1.043.027-1.919Z" transform="translate(-22.614 -14.383)"/><path class="cls-2" d="M33.351,53.679c0-.431-.015-.667-.028-1.084a2.354,2.354,0,0,1,.611-.167H37.1a.56.56,0,0,1-.278.459,2.4,2.4,0,0,1-.946.1H34.06v2.572h2.682c-.083.5-.278.555-.625.555H34.06c0,1.53.027,2.336.041,2.836a1.864,1.864,0,0,1-.514.084c-.153,0-.236-.042-.236-.2Z" transform="translate(-22.614 -14.383)"/><path class="cls-2" d="M41.275,52.275a3.163,3.163,0,0,1,3.294,3.364,3.213,3.213,0,0,1-3.378,3.5,3.13,3.13,0,0,1-3.35-3.35,3.348,3.348,0,0,1,3.42-3.517Zm-.153.542c-1.488,0-2.488,1.2-2.488,2.933a2.615,2.615,0,0,0,2.613,2.85c1.473,0,2.53-.918,2.53-2.906a2.578,2.578,0,0,0-2.641-2.877Z" transform="translate(-22.614 -14.383)"/><path class="cls-2" d="M46.794,58.683c0,.236-.055.278-.194.306a2.761,2.761,0,0,1-.542.042c.027-.445.027-1.043.027-1.905V53.651c0-.514,0-.792-.013-1.181a12.373,12.373,0,0,1,1.515-.126c1.223,0,2.321.473,2.321,1.891a1.9,1.9,0,0,1-1.32,1.751,5.273,5.273,0,0,1,.987,1.223,7.407,7.407,0,0,0,1.39,1.683v.027a.85.85,0,0,1-.528.125.932.932,0,0,1-.723-.43c-.362-.445-.626-.848-1.252-1.752-.4-.57-.639-.667-1.668-.667Zm0-3.03a8.911,8.911,0,0,0,1.321-.028,1.3,1.3,0,0,0,1-1.348,1.462,1.462,0,0,0-1.6-1.39,4.592,4.592,0,0,0-.723.055Z" transform="translate(-22.614 -14.383)"/><path class="cls-2" d="M58.152,52.525a1.2,1.2,0,0,1,.528-.167c.083,0,.125.07.167.32l.625,3.85c.167,1.126.334,1.891.445,2.391a1.459,1.459,0,0,1-.514.112c-.167,0-.236-.042-.278-.264-.111-.557-.181-1.126-.306-1.947L58.346,53.6c-.43.945-1.417,3.169-2.335,5.171a.922.922,0,0,1-.4.167c-.278-.724-1.432-3.629-2.183-5.408-.1.9-.736,4.2-.9,5.338-.014.125-.069.167-.2.167a1.1,1.1,0,0,1-.473-.112c.2-1.126.751-3.919,1.2-6.144l-.083-.264a1.011,1.011,0,0,1,.5-.153c.1,0,.181.084.292.362l2.113,4.948c.918-1.974,1.863-3.989,2.294-4.893Z" transform="translate(-22.614 -14.383)"/><path class="cls-2" d="M62.643,56.834c-.487,1-.834,1.766-.974,2.044a.215.215,0,0,1-.194.153,1.558,1.558,0,0,1-.542-.084l-.014-.041c.737-1.432,2.641-5.477,2.905-6.075l-.139-.348a1.623,1.623,0,0,1,.528-.125c.1,0,.167.056.292.362.432,1.029,1.349,3.225,1.794,4.2.43.959.778,1.7.917,1.96v.041a1.749,1.749,0,0,1-.584.112c-.125,0-.236-.056-.333-.306-.223-.487-.4-.9-.835-1.891Zm2.6-.556c-.542-1.293-.987-2.363-1.154-2.724-.472,1.042-.764,1.765-1.195,2.724Z" transform="translate(-22.614 -14.383)"/><path class="cls-2" d="M69.357,53h-2.1c-.18,0-.264-.1-.166-.25a1.145,1.145,0,0,1,.347-.376,8.986,8.986,0,0,0,1.543.056h3.5a.781.781,0,0,1-.334.57H70.08v4.684c0,.737.028,1.085.042,1.265a3.23,3.23,0,0,1-.6.084.148.148,0,0,1-.167-.167Z" transform="translate(-22.614 -14.383)"/><path class="cls-2" d="M73.737,53.8c0-.709-.014-1.14-.014-1.362a2.424,2.424,0,0,1,.542-.084c.139,0,.181.1.181.584v4.712c0,.723.028,1.057.041,1.293a1.75,1.75,0,0,1-.542.084c-.125,0-.208-.028-.208-.209Z" transform="translate(-22.614 -14.383)"/><path class="cls-2" d="M79.437,52.275a3.163,3.163,0,0,1,3.294,3.364,3.213,3.213,0,0,1-3.378,3.5A3.13,3.13,0,0,1,76,55.792a3.348,3.348,0,0,1,3.419-3.517Zm-.154.542c-1.487,0-2.488,1.2-2.488,2.933a2.616,2.616,0,0,0,2.614,2.85c1.473,0,2.529-.918,2.529-2.906A2.578,2.578,0,0,0,79.3,52.817Z" transform="translate(-22.614 -14.383)"/><path class="cls-2" d="M84.247,52.984l-.376-.473v-.055a4.06,4.06,0,0,1,.626-.1c.083,0,.153.07.278.2.361.375,1.7,2.03,3.086,3.6.528.6,1.07,1.293,1.431,1.71-.041-.639-.027-1.1-.027-1.779V52.692c0-.236.042-.264.194-.292a2.4,2.4,0,0,1,.487-.042c-.014.445-.028,1.043-.028,1.919v4.629a.987.987,0,0,1-.417.125c-.111,0-.209-.07-.375-.278-.653-.779-1.863-2.155-3.086-3.628-.362-.445-.751-.974-1.2-1.5.056,1.2.056,1.793.056,2.334V58.7c0,.237-.069.264-.278.292a1.676,1.676,0,0,1-.4.042c.028-.445.028-1.043.028-1.919Z" transform="translate(-22.614 -14.383)"/><path class="cls-2" d="M93.478,52.275a2.233,2.233,0,0,1,1.432.486.666.666,0,0,1-.139.32.2.2,0,0,1-.292.042,2.582,2.582,0,0,0-1.042-.278c-.682,0-1.224.334-1.224,1.042,0,.681.57,1.043,1.6,1.627.945.528,1.4,1,1.4,1.835,0,1.32-1.168,1.793-2.141,1.793a2.852,2.852,0,0,1-1.543-.417.382.382,0,0,1-.18-.348.47.47,0,0,1,.138-.347,2.871,2.871,0,0,0,1.585.542c.931,0,1.376-.417,1.376-1.084,0-.6-.3-.89-1.4-1.543-1.015-.626-1.543-1.015-1.543-1.974a1.749,1.749,0,0,1,1.96-1.7Z" transform="translate(-22.614 -14.383)"/><path class="cls-2" d="M99.3,55.208a.956.956,0,0,1-.82.792,13.535,13.535,0,0,1-2.252.32l-.028-.042c.111-.347.292-.667.445-.681.834-.1,2.071-.278,2.627-.417Z" transform="translate(-22.614 -14.383)"/><path class="cls-2" d="M109.84,58.919a.9.9,0,0,1-.584.251c-.1,0-.208-.084-.4-.278s-.709-.723-1.126-1.1a2.824,2.824,0,0,1-2.35,1.349,1.9,1.9,0,0,1-2.071-1.891c0-1.028.792-1.543,1.571-2.1a2.265,2.265,0,0,1-.848-1.626,1.678,1.678,0,0,1,1.682-1.7,1.468,1.468,0,0,1,1.612,1.5c0,.917-.834,1.362-1.459,1.807.7.611,1.6,1.445,1.89,1.7.5-.834.89-1.612,1.293-2.251.167-.265.292-.432.445-.432a.544.544,0,0,1,.417.292V54.5a21.07,21.07,0,0,0-1.78,2.71c1.154,1.113,1.627,1.53,1.71,1.655Zm-4.253-.361a2.289,2.289,0,0,0,1.779-1.112c-.695-.681-1.765-1.6-2.155-1.946a2.179,2.179,0,0,0-1.139,1.682,1.41,1.41,0,0,0,1.5,1.376Zm.1-6.227a1,1,0,0,0-.987,1.126,1.932,1.932,0,0,0,.834,1.348c.57-.389,1.126-.834,1.126-1.446a.946.946,0,0,0-.959-1.028Z" transform="translate(-22.614 -14.383)"/><path class="cls-2" d="M114.582,53.832c0-.7-.014-1.182-.014-1.39a2.189,2.189,0,0,1,.528-.084c.139,0,.195.084.195.6v2.669c1.265-1.154,2.808-2.655,3.5-3.281a2.142,2.142,0,0,1,.432.07c.18.056.194.153,0,.32-.737.625-1.919,1.751-3.142,2.835.778.806,2.669,2.6,3.419,3.309v.041a1.892,1.892,0,0,1-.625.125.583.583,0,0,1-.389-.18c-.681-.654-3.1-3.044-3.2-3.142v1.946c0,.723.027,1.071.041,1.279a2.077,2.077,0,0,1-.57.084c-.1,0-.18-.028-.18-.2Z" transform="translate(-22.614 -14.383)"/><path class="cls-2" d="M123.368,52.275a3.163,3.163,0,0,1,3.294,3.364,3.213,3.213,0,0,1-3.378,3.5,3.13,3.13,0,0,1-3.35-3.35,3.348,3.348,0,0,1,3.42-3.517Zm-.153.542c-1.488,0-2.488,1.2-2.488,2.933a2.615,2.615,0,0,0,2.613,2.85c1.473,0,2.53-.918,2.53-2.906a2.578,2.578,0,0,0-2.641-2.877Z" transform="translate(-22.614 -14.383)"/><path class="cls-2" d="M134.1,52.525a1.2,1.2,0,0,1,.528-.167c.083,0,.125.07.167.32l.625,3.85c.167,1.126.334,1.891.445,2.391a1.459,1.459,0,0,1-.514.112c-.167,0-.236-.042-.278-.264-.111-.557-.18-1.126-.306-1.947l-.473-3.224c-.43.945-1.417,3.169-2.335,5.171a.918.918,0,0,1-.4.167c-.278-.724-1.431-3.629-2.182-5.408-.1.9-.737,4.2-.9,5.338-.013.125-.069.167-.195.167a1.093,1.093,0,0,1-.472-.112c.2-1.126.751-3.919,1.2-6.144l-.084-.264a1.015,1.015,0,0,1,.5-.153c.1,0,.18.084.292.362l2.112,4.948c.918-1.974,1.863-3.989,2.294-4.893Z" transform="translate(-22.614 -14.383)"/><path class="cls-2" d="M143.442,52.525a1.2,1.2,0,0,1,.529-.167c.083,0,.125.07.167.32l.625,3.85c.167,1.126.334,1.891.445,2.391a1.469,1.469,0,0,1-.515.112c-.167,0-.236-.042-.278-.264-.111-.557-.181-1.126-.306-1.947l-.472-3.224c-.431.945-1.418,3.169-2.335,5.171a.921.921,0,0,1-.4.167c-.277-.724-1.431-3.629-2.182-5.408-.1.9-.737,4.2-.9,5.338-.013.125-.069.167-.194.167a1.09,1.09,0,0,1-.472-.112c.194-1.126.75-3.919,1.2-6.144l-.084-.264a1.018,1.018,0,0,1,.5-.153c.1,0,.18.084.292.362l2.113,4.948c.917-1.974,1.862-3.989,2.293-4.893Z" transform="translate(-22.614 -14.383)"/><path class="cls-2" d="M147.461,55.625c0,2.516,1.182,2.947,2.127,2.947,1.237,0,2.057-.556,2.057-3V52.692c0-.236.084-.264.222-.278a4.518,4.518,0,0,1,.5-.042c-.042.431-.056,1.043-.056,1.919v1.4c0,2.948-1.5,3.448-2.835,3.448-1.516,0-2.725-.848-2.725-3.156V53.818c0-.709-.014-1.126-.028-1.376a2.628,2.628,0,0,1,.556-.07c.139,0,.181.1.181.6Z" transform="translate(-22.614 -14.383)"/><path class="cls-2" d="M154.26,52.984l-.376-.473v-.055a4.042,4.042,0,0,1,.626-.1c.083,0,.152.07.277.2.362.375,1.7,2.03,3.087,3.6.527.6,1.07,1.293,1.432,1.71-.042-.639-.029-1.1-.029-1.779V52.692c0-.236.042-.264.2-.292a2.4,2.4,0,0,1,.487-.042c-.015.445-.028,1.043-.028,1.919v4.629a.991.991,0,0,1-.417.125c-.112,0-.208-.07-.375-.278-.654-.779-1.864-2.155-3.086-3.628-.362-.445-.751-.974-1.2-1.5.056,1.2.056,1.793.056,2.334V58.7c0,.237-.07.264-.278.292a1.679,1.679,0,0,1-.4.042c.029-.445.029-1.043.029-1.919Z" transform="translate(-22.614 -14.383)"/><path class="cls-2" d="M161.976,53.8c0-.709-.015-1.14-.015-1.362a2.432,2.432,0,0,1,.542-.084c.14,0,.182.1.182.584v4.712c0,.723.027,1.057.041,1.293a1.755,1.755,0,0,1-.542.084c-.125,0-.208-.028-.208-.209Z" transform="translate(-22.614 -14.383)"/><path class="cls-2" d="M164.742,53.832c0-.7-.014-1.182-.014-1.39a2.189,2.189,0,0,1,.528-.084c.14,0,.195.084.195.6v2.669c1.265-1.154,2.808-2.655,3.5-3.281a2.155,2.155,0,0,1,.431.07c.18.056.194.153,0,.32-.738.625-1.918,1.751-3.142,2.835.778.806,2.669,2.6,3.42,3.309v.041a1.9,1.9,0,0,1-.626.125.587.587,0,0,1-.39-.18c-.68-.654-3.1-3.044-3.2-3.142v1.946c0,.723.028,1.071.041,1.279a2.081,2.081,0,0,1-.569.084c-.1,0-.181-.028-.181-.2Z" transform="translate(-22.614 -14.383)"/><path class="cls-2" d="M172.138,56.834c-.487,1-.834,1.766-.973,2.044a.218.218,0,0,1-.195.153,1.558,1.558,0,0,1-.542-.084l-.014-.041c.736-1.432,2.642-5.477,2.905-6.075l-.138-.348a1.611,1.611,0,0,1,.528-.125c.1,0,.166.056.292.362.431,1.029,1.348,3.225,1.793,4.2s.778,1.7.917,1.96v.041a1.749,1.749,0,0,1-.584.112c-.125,0-.236-.056-.333-.306-.223-.487-.4-.9-.834-1.891Zm2.6-.556c-.542-1.293-.987-2.363-1.154-2.724-.472,1.042-.764,1.765-1.195,2.724Z" transform="translate(-22.614 -14.383)"/><path class="cls-2" d="M178.852,53h-2.1c-.181,0-.264-.1-.167-.25a1.158,1.158,0,0,1,.348-.376,8.968,8.968,0,0,0,1.543.056h3.5a.78.78,0,0,1-.333.57h-2.071v4.684c0,.737.028,1.085.041,1.265a3.218,3.218,0,0,1-.6.084.147.147,0,0,1-.167-.167Z" transform="translate(-22.614 -14.383)"/><path class="cls-2" d="M183.232,53.8c0-.709-.014-1.14-.014-1.362a2.424,2.424,0,0,1,.542-.084c.139,0,.181.1.181.584v4.712c0,.723.028,1.057.041,1.293a1.746,1.746,0,0,1-.542.084c-.125,0-.208-.028-.208-.209Z" transform="translate(-22.614 -14.383)"/><path class="cls-2" d="M188.931,52.275a3.164,3.164,0,0,1,3.295,3.364,3.213,3.213,0,0,1-3.378,3.5,3.13,3.13,0,0,1-3.351-3.35,3.349,3.349,0,0,1,3.42-3.517Zm-.153.542c-1.487,0-2.488,1.2-2.488,2.933A2.615,2.615,0,0,0,188.9,58.6c1.474,0,2.531-.918,2.531-2.906a2.579,2.579,0,0,0-2.642-2.877Z" transform="translate(-22.614 -14.383)"/><path class="cls-2" d="M193.742,52.984l-.376-.473v-.055a4.06,4.06,0,0,1,.626-.1c.083,0,.153.07.278.2.362.375,1.7,2.03,3.086,3.6.528.6,1.071,1.293,1.432,1.71-.042-.639-.028-1.1-.028-1.779V52.692c0-.236.042-.264.194-.292a2.4,2.4,0,0,1,.487-.042c-.014.445-.028,1.043-.028,1.919v4.629a.983.983,0,0,1-.417.125c-.111,0-.208-.07-.375-.278-.653-.779-1.863-2.155-3.086-3.628-.361-.445-.751-.974-1.195-1.5.056,1.2.056,1.793.056,2.334V58.7c0,.237-.071.264-.279.292a1.667,1.667,0,0,1-.4.042c.028-.445.028-1.043.028-1.919Z" transform="translate(-22.614 -14.383)"/><path class="cls-2" d="M202.973,52.275a2.228,2.228,0,0,1,1.431.486.655.655,0,0,1-.138.32.2.2,0,0,1-.292.042,2.588,2.588,0,0,0-1.043-.278c-.681,0-1.223.334-1.223,1.042,0,.681.569,1.043,1.6,1.627.945.528,1.4,1,1.4,1.835,0,1.32-1.167,1.793-2.141,1.793a2.858,2.858,0,0,1-1.543-.417.382.382,0,0,1-.18-.348.467.467,0,0,1,.139-.347,2.867,2.867,0,0,0,1.584.542c.932,0,1.377-.417,1.377-1.084,0-.6-.306-.89-1.4-1.543C201.527,55.319,201,54.93,201,53.971a1.749,1.749,0,0,1,1.96-1.7Z" transform="translate(-22.614 -14.383)"/><path class="cls-2" d="M206.185,53.8a12.88,12.88,0,0,0-.056-1.362,4.345,4.345,0,0,1,.6-.084c.125,0,.167.112.167.6v5.435a11.492,11.492,0,0,0,1.57.084c.39,0,1.084,0,1.432-.028l.013.042a.924.924,0,0,1-.444.472,4.981,4.981,0,0,1-1.265.07,14.613,14.613,0,0,1-1.863-.084l-.152-.208Z" transform="translate(-22.614 -14.383)"/><path class="cls-2" d="M213.747,52.275a3.164,3.164,0,0,1,3.295,3.364,3.213,3.213,0,0,1-3.378,3.5,3.131,3.131,0,0,1-3.351-3.35,3.349,3.349,0,0,1,3.42-3.517Zm-.152.542c-1.488,0-2.489,1.2-2.489,2.933a2.616,2.616,0,0,0,2.614,2.85c1.473,0,2.53-.918,2.53-2.906a2.579,2.579,0,0,0-2.642-2.877Zm-.932-2.544a.529.529,0,0,1,.5.556.519.519,0,0,1-.542.57.5.5,0,0,1-.528-.542.548.548,0,0,1,.556-.584Zm2.141,0a.565.565,0,0,1-.07,1.126.51.51,0,0,1-.514-.542.551.551,0,0,1,.57-.584Z" transform="translate(-22.614 -14.383)"/><path class="cls-2" d="M220.184,52.275a2.228,2.228,0,0,1,1.431.486.655.655,0,0,1-.138.32.2.2,0,0,1-.292.042,2.588,2.588,0,0,0-1.043-.278c-.681,0-1.223.334-1.223,1.042,0,.681.569,1.043,1.6,1.627.945.528,1.4,1,1.4,1.835,0,1.32-1.167,1.793-2.141,1.793a2.858,2.858,0,0,1-1.543-.417.382.382,0,0,1-.18-.348.467.467,0,0,1,.139-.347,2.867,2.867,0,0,0,1.584.542c.932,0,1.377-.417,1.377-1.084,0-.6-.306-.89-1.4-1.543-1.015-.626-1.543-1.015-1.543-1.974a1.749,1.749,0,0,1,1.96-1.7Z" transform="translate(-22.614 -14.383)"/><path class="cls-2" d="M223.966,55.625c0,2.516,1.181,2.947,2.127,2.947,1.237,0,2.056-.556,2.056-3V52.692c0-.236.084-.264.223-.278a4.5,4.5,0,0,1,.5-.042c-.042.431-.056,1.043-.056,1.919v1.4c0,2.948-1.5,3.448-2.836,3.448-1.515,0-2.724-.848-2.724-3.156V53.818c0-.709-.014-1.126-.028-1.376a2.628,2.628,0,0,1,.556-.07c.139,0,.181.1.181.6Z" transform="translate(-22.614 -14.383)"/><path class="cls-2" d="M230.764,52.984l-.376-.473v-.055a4.042,4.042,0,0,1,.626-.1c.083,0,.152.07.277.2.362.375,1.7,2.03,3.087,3.6.527.6,1.07,1.293,1.432,1.71-.042-.639-.029-1.1-.029-1.779V52.692c0-.236.042-.264.195-.292a2.4,2.4,0,0,1,.487-.042c-.015.445-.028,1.043-.028,1.919v4.629a.991.991,0,0,1-.417.125c-.112,0-.208-.07-.375-.278-.654-.779-1.864-2.155-3.086-3.628-.362-.445-.751-.974-1.2-1.5.056,1.2.056,1.793.056,2.334V58.7c0,.237-.07.264-.278.292a1.679,1.679,0,0,1-.4.042c.029-.445.029-1.043.029-1.919Z" transform="translate(-22.614 -14.383)"/><path class="cls-2" d="M243.15,56.876a5.83,5.83,0,0,0-.055-.89,1.751,1.751,0,0,1,.569-.1c.125,0,.2.084.2.292v2.308a3.6,3.6,0,0,1-.848.445,4.357,4.357,0,0,1-1.432.208c-1.835,0-3.6-.959-3.6-3.378a3.43,3.43,0,0,1,3.558-3.489,3.489,3.489,0,0,1,2.322.7.554.554,0,0,1-.18.375.3.3,0,0,1-.321-.028,3.25,3.25,0,0,0-1.779-.486,2.746,2.746,0,0,0-2.808,2.863,3.1,3.1,0,0,0,4.379,2.628Z" transform="translate(-22.614 -14.383)"/><path class="cls-2" d="M245.668,53.9c0-.5,0-.848-.042-1.32a4.368,4.368,0,0,1,.584-.153h3.03c-.042.306-.153.431-.32.5a4.79,4.79,0,0,1-1.042.056h-1.5v2.363H249.1a.608.608,0,0,1-.708.542h-2.016v2.488a8.612,8.612,0,0,0,1.432.1c.584,0,1.209-.014,1.709-.042v.028a.827.827,0,0,1-.375.486,4.857,4.857,0,0,1-1.223.084,16.727,16.727,0,0,1-2.1-.1l-.152-.2Z" transform="translate(-22.614 -14.383)"/><path class="cls-2" d="M250.812,52.984l-.376-.473v-.055a4.042,4.042,0,0,1,.626-.1c.083,0,.152.07.277.2.362.375,1.7,2.03,3.087,3.6.527.6,1.07,1.293,1.431,1.71-.042-.639-.028-1.1-.028-1.779V52.692c0-.236.042-.264.194-.292a2.41,2.41,0,0,1,.488-.042c-.015.445-.029,1.043-.029,1.919v4.629a.983.983,0,0,1-.417.125c-.111,0-.208-.07-.375-.278-.653-.779-1.863-2.155-3.086-3.628-.361-.445-.75-.974-1.2-1.5.056,1.2.056,1.793.056,2.334V58.7c0,.237-.07.264-.278.292a1.679,1.679,0,0,1-.4.042c.029-.445.029-1.043.029-1.919Z" transform="translate(-22.614 -14.383)"/></svg>