<?xml version="1.0" encoding="UTF-8"?><svg id="Ebene_1" xmlns="http://www.w3.org/2000/svg" viewBox="0 0 283.267 283.267"><defs><style>.cls-1{fill:#81b55a;}.cls-2,.cls-3,.cls-4{fill:#fff;}.cls-5{fill:#c0c7b7;}.cls-6{fill:#c3161c;}.cls-7{fill:none;stroke:#6b8884;stroke-width:6px;}.cls-7,.cls-3,.cls-4{stroke-miterlimit:10;}.cls-3,.cls-4{stroke:#81b55a;stroke-width:10px;}.cls-4{fill-rule:evenodd;}</style></defs><rect class="cls-7" x="3" y="3" width="277.267" height="277.267" rx="12" ry="12"/><rect class="cls-5" x="32.76" y="46.16" width="137.569" height="193.52"/><rect class="cls-2" x="92.447" y="72.247" width="161.428" height="102.683"/><path class="cls-1" d="m248.876,77.247v92.682H97.447v-92.682h151.429m10-10H87.447v112.682h171.429v-112.682h0Z"/><polyline class="cls-4" points="92.733 76.142 173.161 147.118 253.019 76.436"/><line class="cls-3" x1="147.661" y1="120.874" x2="93.161" y2="174.647"/><line class="cls-3" x1="198.519" y1="121.167" x2="253.161" y2="173.767"/><path class="cls-6" d="m121.517,214.875c0-9.238,6.416-15.911,15.142-15.911,9.239,0,15.142,6.673,15.142,15.911,0,8.982-5.902,15.912-15.142,15.912-8.982,0-15.142-6.93-15.142-15.912Zm6.416-36.699l-3.593-123.186h24.637l-3.593,123.186h-17.451Z"/></svg>