<?xml version="1.0" encoding="UTF-8"?><svg id="Ebene_1" xmlns="http://www.w3.org/2000/svg" viewBox="0 0 283.584 283.267"><defs><style>.cls-1{fill:#cc4b4c;}.cls-1,.cls-2,.cls-3,.cls-4{stroke-width:0px;}.cls-5{fill:#6b8884;stroke:#6b8884;stroke-miterlimit:10;stroke-width:6px;}.cls-2{fill:#fff200;}.cls-3{fill:#254b85;}.cls-4{fill:#dadada;}</style></defs><rect class="cls-5" x="3.317" y="3" width="277.267" height="277.267" rx="12" ry="12"/><rect class="cls-4" x="69.975" y="43.078" width="143.445" height="201.786"/><polygon class="cls-3" points=".324 99.388 99.545 .168 228.596 .168 0 228.764 .324 99.388"/><polyline class="cls-2" points="106.219 50.779 113.703 45.416 121.095 50.909 118.34 42.106 125.943 36.744 116.63 36.663 113.857 27.753 110.93 36.623 101.623 36.532 109.125 42.025 106.219 50.779"/><polyline class="cls-2" points="67.637 60.786 75.122 55.422 82.508 60.915 79.758 52.112 87.356 46.75 78.043 46.669 75.272 37.749 72.344 46.629 63.036 46.538 70.538 52.031 67.637 60.786"/><polyline class="cls-2" points="46.866 65.732 43.938 74.612 34.631 74.521 42.133 80.014 39.227 88.768 46.712 83.405 54.102 88.898 51.348 80.094 58.945 74.732 49.638 74.651 46.866 65.732"/><polyline class="cls-2" points="36.046 121.759 43.433 127.251 40.683 118.449 48.279 113.086 38.973 113.005 36.2 104.086 33.272 112.975 23.961 112.874 31.468 118.369 28.561 127.122 36.046 121.759"/><polyline class="cls-2" points="48.968 151.653 46.195 142.734 43.268 151.614 33.961 151.523 41.463 157.016 38.557 165.77 46.042 160.397 53.432 165.9 50.678 157.096 58.275 151.734 48.968 151.653"/><polyline class="cls-2" points="152.327 38.43 149.405 47.309 140.093 47.209 147.59 52.712 144.689 61.466 152.184 56.093 159.564 61.595 156.815 52.792 164.417 47.42 155.095 47.339 152.327 38.43"/><path class="cls-1" d="m104.672,210.776c-1.493,0-2.927-.485-4.167-1.413-4.486-3.37-5.1-7.117-4.804-9.667.782-7.03,9.457-14.379,25.82-21.857,6.486-14.217,12.659-31.74,16.32-46.377-4.292-9.37-8.486-21.523-5.429-28.639,1.073-2.507,2.399-4.426,4.885-5.246.992-.334,3.472-.739,4.378-.739,2.194,0,4.087,2.804,5.456,4.529,1.267,1.623,4.151,5.057-1.623,29.34,5.812,12.001,14.072,24.24,21.949,32.597,5.661-1.008,10.53-1.536,14.487-1.536,6.761,0,10.848,1.58,12.508,4.825,1.391,2.674.825,5.812-1.66,9.306-2.421,3.37-5.731,5.143-9.581,5.143-5.246,0-11.355-3.31-18.18-9.861-12.233,2.572-26.51,7.122-38.075,12.174-3.601,7.645-7.057,13.818-10.276,18.347-4.405,6.189-8.238,9.074-12.007,9.074h0Zm11.479-22.11c-9.203,5.181-12.972,9.435-13.225,11.834-.065.399-.167,1.434,1.855,2.992.631-.21,4.378-1.919,11.371-14.826h0Zm58.821-19.167c3.521,2.717,4.383,4.087,6.68,4.087,1.008,0,3.893-.043,5.219-1.919.631-.906.884-1.472.992-1.79-.528-.275-1.245-.841-5.079-.841-2.168,0-4.906.108-7.812.464h0Zm-32.219-28.392c-3.078,10.681-7.144,22.197-11.522,32.624,9.015-3.494,18.805-6.551,28.009-8.696-5.812-6.761-11.646-15.209-16.487-23.927h0Zm-2.615-36.495c-.42.146-5.726,7.58.421,13.878,4.087-9.117-.232-13.942-.421-13.878h0Zm0,0"/></svg>