<?xml version="1.0" encoding="UTF-8"?><svg id="Ebene_1" xmlns="http://www.w3.org/2000/svg" viewBox="0 0 283.584 283.267"><defs><style>.cls-1{fill:#cc4b4c;}.cls-1,.cls-2,.cls-3,.cls-4{stroke-width:0px;}.cls-5{fill:#6b8884;stroke:#6b8884;stroke-miterlimit:10;stroke-width:6px;}.cls-2{fill:#fff200;}.cls-3{fill:#254b85;}.cls-4{fill:#fff;}</style></defs><rect class="cls-5" x="3.317" y="3" width="277.267" height="277.267" rx="12" ry="12"/><rect class="cls-4" x="69.975" y="43.078" width="143.445" height="201.786"/><polygon class="cls-3" points=".261 79.994 80.087 .168 183.913 .168 0 184.081 .261 79.994"/><polyline class="cls-2" points="85.456 40.886 91.478 36.572 97.425 40.991 95.208 33.908 101.325 29.594 93.832 29.529 91.602 22.361 89.247 29.497 81.759 29.424 87.795 33.844 85.456 40.886"/><polyline class="cls-2" points="54.416 48.937 60.438 44.622 66.381 49.041 64.168 41.958 70.281 37.644 62.788 37.579 60.559 30.403 58.203 37.547 50.715 37.474 56.75 41.894 54.416 48.937"/><polyline class="cls-2" points="37.705 52.916 35.35 60.06 27.862 59.987 33.898 64.407 31.559 71.45 37.581 67.135 43.527 71.554 41.311 64.471 47.423 60.157 39.935 60.092 37.705 52.916"/><polyline class="cls-2" points="29 97.991 34.943 102.41 32.731 95.329 38.842 91.014 31.355 90.949 29.124 83.773 26.769 90.925 19.277 90.844 25.317 95.264 22.979 102.306 29 97.991"/><polyline class="cls-2" points="39.396 122.043 37.166 114.867 34.81 122.011 27.323 121.938 33.359 126.357 31.02 133.4 37.042 129.078 42.988 133.504 40.772 126.422 46.884 122.108 39.396 122.043"/><polyline class="cls-2" points="122.552 30.951 120.201 38.095 112.709 38.014 118.741 42.441 116.407 49.484 122.437 45.161 128.374 49.588 126.163 42.506 132.279 38.184 124.779 38.119 122.552 30.951"/><path class="cls-1" d="m101.838,207.942c-1.493,0-2.927-.485-4.167-1.413-4.486-3.37-5.1-7.117-4.804-9.667.782-7.03,9.457-14.379,25.82-21.857,6.486-14.217,12.659-31.74,16.32-46.377-4.292-9.37-8.486-21.523-5.429-28.639,1.073-2.507,2.399-4.426,4.885-5.246.992-.334,3.472-.739,4.378-.739,2.194,0,4.087,2.804,5.456,4.529,1.267,1.623,4.151,5.057-1.623,29.34,5.812,12.001,14.072,24.24,21.949,32.597,5.661-1.008,10.53-1.536,14.487-1.536,6.761,0,10.848,1.58,12.508,4.825,1.391,2.674.825,5.812-1.66,9.306-2.421,3.37-5.731,5.143-9.581,5.143-5.246,0-11.355-3.31-18.18-9.861-12.233,2.572-26.51,7.122-38.075,12.174-3.601,7.645-7.057,13.818-10.276,18.347-4.405,6.189-8.238,9.074-12.007,9.074h0Zm11.479-22.11c-9.203,5.181-12.972,9.435-13.225,11.834-.065.399-.167,1.434,1.855,2.992.631-.21,4.378-1.919,11.371-14.826h0Zm58.821-19.167c3.521,2.717,4.383,4.087,6.68,4.087,1.008,0,3.893-.043,5.219-1.919.631-.906.884-1.472.992-1.79-.528-.275-1.245-.841-5.079-.841-2.168,0-4.906.108-7.812.464h0Zm-32.219-28.392c-3.078,10.681-7.144,22.197-11.522,32.624,9.015-3.494,18.805-6.551,28.009-8.696-5.812-6.761-11.646-15.209-16.487-23.927h0Zm-2.615-36.495c-.42.146-5.726,7.58.421,13.878,4.087-9.117-.232-13.942-.421-13.878h0Zm0,0"/></svg>