<?xml version="1.0" encoding="UTF-8"?><svg id="Ebene_1" xmlns="http://www.w3.org/2000/svg" viewBox="0 0 283.465 338.917"><defs><style>.cls-1{fill:#fff;}.cls-2{fill:#6b8884;}</style></defs><circle class="cls-2" cx="141.732" cy="141.732" r="141.732"/><path class="cls-1" d="m149.321,220.993c3.166,0,7.123-2.068,14.245-8.571,6.067-5.319,8.705,1.479,3.957,8.275-10.815,15.96-28.753,28.077-39.569,28.077-10.552,0-9.497-18.915-7.386-33.987,1.319-11.526,7.122-48.766,9.497-67.681.792-8.276-1.319-9.458-5.012-9.458-2.11,0-5.276.591-7.65.887-5.804.295-7.123-6.502-.792-10.049,13.717-7.093,35.612-15.073,40.097-15.073,2.374,0,3.43,3.251,2.901,6.797-1.582,12.118-12.135,78.025-13.717,91.325-.792,7.389.264,9.457,3.429,9.457Zm17.147-160.778c0,11.231-6.067,24.235-19.521,24.235-7.386,0-13.98-5.911-13.98-18.324,0-10.64,8.705-21.871,19.521-21.871,11.079,0,13.981,10.048,13.981,15.959Z"/></svg>