<?xml version="1.0" encoding="UTF-8"?><svg id="Ebene_4" xmlns="http://www.w3.org/2000/svg" viewBox="0 0 281.981 281.981"><defs><style>.cls-1{fill:#fff;}.cls-1,.cls-2{stroke-width:0px;}.cls-2{fill:#6b8884;}</style></defs><rect class="cls-1" x="10" y="10" width="261.981" height="261.981" rx="2" ry="2"/><path class="cls-2" d="m261.981,20v241.981H20V20h241.981m8-20H12C5.4,0,0,5.4,0,12v257.981c0,6.6,5.4,12,12,12h257.981c6.6,0,12-5.4,12-12V12c0-6.6-5.4-12-12-12h0Z"/><path class="cls-2" d="m81.603,58.166h60.437c39.931,0,66.372,21.584,66.372,54.771s-26.711,55.04-66.912,55.04h-35.614v63.135h-24.283V58.166Zm24.283,21.854v66.102h38.312c23.203,0,38.582-13.22,38.582-33.186s-15.379-32.917-38.582-32.917h-38.312Z"/></svg>