<?xml version="1.0" encoding="UTF-8"?><svg xmlns="http://www.w3.org/2000/svg" viewBox="0 0 283.267 283.267"><defs><style>.cls-1{fill:#fff;}.cls-2,.cls-3{fill:none;stroke:#fff;stroke-linejoin:round;}.cls-2,.cls-3,.cls-4{stroke-width:6px;}.cls-3{stroke-linecap:round;}.cls-4{fill:#6b8884;stroke:#6b8884;stroke-miterlimit:10;}</style></defs><g id="Ebene_1"><rect class="cls-4" x="3" y="3" width="277.267" height="277.267" rx="12" ry="12"/></g><g id="Ebene_3"><path class="cls-1" d="m212.496,45.764l21.842,18.442c.063.13.131.257.203.382v154.58c0,3.308-2.692,6-6,6H61.137c-3.308,0-6-2.692-6-6V51.764c0-3.308,2.692-6,6-6h151.359m2.2-6.235h0,0s0,0,.001.002c0-.001,0-.002-.001-.002h0Zm0,0s-.006.062-.006.235c0-.173.003-.234.006-.235h0Zm.001.002c.005.018.012.151.013.25h0c-.002-.099-.008-.233-.013-.25h0Zm-.007.233H61.137c-6.6,0-12,5.4-12,12v167.404c0,6.6,5.4,12,12,12h167.404c6.6,0,12-5.4,12-12V61.59h-.801.801l-25.83-21.809c.001.061,0,.11-.003.11,0,0,0,0,0,0-.003-.002-.007-.026-.013-.082,0,0,0,0,0-.001,0-.002,0-.004,0-.006,0,0,0,0,0,0,0-.005-.001-.011-.002-.017,0,0,0-.001,0-.002,0-.001,0-.002,0-.003,0-.005,0-.01-.001-.015h0Zm0,0c0,.005,0,.01.001.015,0,.001,0,.002,0,.003,0,0,0,.001,0,.002,0,.006.001.012.002.017,0,0,0,0,0,0,0,.002,0,.004,0,.006,0,0,0,0,0,.001.006.056.01.08.013.082,0,0,0,0,0,0,.004,0,.004-.048.003-.11l-.021-.017h0Z"/><polyline class="cls-2" points="96.689 42.429 96.093 103.845 187.173 103.845 187.173 43.025"/><line class="cls-3" x1="83.422" y1="162.13" x2="210.876" y2="162.13"/><line class="cls-3" x1="83.422" y1="181.36" x2="210.876" y2="181.36"/><line class="cls-3" x1="83.422" y1="201.596" x2="210.876" y2="201.596"/></g></svg>