<?xml version="1.0" encoding="UTF-8"?><svg xmlns="http://www.w3.org/2000/svg" viewBox="0 0 283.267 283.267"><defs><style>.cls-1{fill:#fff;}.cls-2{fill:#6b8884;stroke:#6b8884;stroke-miterlimit:10;stroke-width:6px;}.cls-3{fill:#c0c7b7;}</style></defs><g id="Ebene_1"><rect class="cls-2" x="3" y="3" width="277.267" height="277.267" rx="12" ry="12"/></g><g id="Ebene_2"><path class="cls-3" d="m193.727,111.67h0c-18.508,0-33.513-15.005-33.513-33.513v-16.757c0-18.508,15.005-33.513,33.513-33.513h0c18.508,0,33.513,15.005,33.513,33.513v16.757c0,18.508-15.005,33.513-33.513,33.513Z"/><path class="cls-3" d="m169.248,117.297c1.553,0,2.933,1.62,3.831,4.09,4.757,13.085,12.565,21.55,21.405,21.55s16.649-8.465,21.405-21.55c.898-2.469,2.278-4.09,3.831-4.09h.01c22.367,0,40.499,35.356,40.499,78.97v36.024c0,7.293-3.032,13.204-6.772,13.204h-117.947c-3.74,0-6.772-5.911-6.772-13.204v-36.024c0-43.614,18.132-78.97,40.499-78.97h.01Z"/><path class="cls-1" d="m164.143,180.801l-70.993,56.907v-28.454H22.155v-56.906h70.994v-28.453l70.993,56.907Z"/></g></svg>