<?xml version="1.0" encoding="UTF-8"?>
<svg id="Ebene_1" data-name="Ebene 1" xmlns="http://www.w3.org/2000/svg" viewBox="0 0 854.5 330.73">
  <defs>
    <style>
      .cls-1 {
        fill: #000;
      }

      .cls-1, .cls-2 {
        stroke-width: 0px;
      }

      .cls-3 {
        isolation: isolate;
      }

      .cls-2 {
        fill: #e30613;
      }
    </style>
  </defs>
  <g id="Ebene_1-2" data-name="Ebene 1">
    <g>
      <g class="cls-3">
        <path class="cls-1" d="M53.48,296.2H18.69v-63.37h34.79v4.62h-29.64v23.25h27.96v4.53h-27.96v26.36h29.64v4.62Z"/>
        <path class="cls-1" d="M86.05,248.19c2.49,0,4.62.27,6.39.8l-.71,4.62c-.95-.24-1.89-.41-2.84-.53-.95-.12-1.95-.18-3.02-.18-4.38,0-7.83,1.58-10.34,4.75-2.52,3.17-3.77,7.38-3.77,12.65v25.92h-5.06v-47.22h4.26l.53,8.88h.27c1.18-2.66,2.97-4.94,5.37-6.83,2.4-1.89,5.37-2.84,8.92-2.84Z"/>
        <path class="cls-1" d="M139.48,296.2l-9.59-30.71c-.59-1.95-1.15-3.8-1.69-5.55-.53-1.75-.98-3.39-1.33-4.93h-.18c-.35,1.54-.77,3.2-1.24,4.97-.47,1.78-1.04,3.64-1.69,5.59l-10.03,30.62h-5.33l-13.31-47.22h5.24l7.99,29.2c.71,2.6,1.32,4.9,1.82,6.88.5,1.98.87,3.74,1.11,5.28h.18c.35-1.42.77-3.11,1.24-5.06.47-1.95,1.12-4.11,1.95-6.48l9.76-29.82h5.15l9.41,29.82c.59,2.13,1.18,4.2,1.78,6.21.59,2.01,1.01,3.79,1.24,5.33h.35c.18-1.42.52-3.15,1.02-5.19.5-2.04,1.08-4.36,1.73-6.97l7.72-29.2h5.15l-12.87,47.22h-5.59Z"/>
        <path class="cls-1" d="M183.68,248.19c5.33,0,9.29,1.3,11.89,3.91,2.6,2.6,3.91,6.72,3.91,12.34v31.77h-3.82l-.98-7.99h-.18c-1.66,2.66-3.73,4.81-6.21,6.44-2.49,1.63-5.92,2.44-10.3,2.44s-8.06-1.12-10.69-3.37c-2.63-2.25-3.95-5.53-3.95-9.85,0-4.67,1.91-8.25,5.72-10.74s9.42-3.88,16.82-4.17l8.61-.44v-3.28c0-4.67-.93-7.97-2.8-9.9-1.86-1.92-4.6-2.88-8.21-2.88-2.43,0-4.76.31-7.01.93-2.25.62-4.5,1.52-6.75,2.71l-1.6-4.08c2.19-1.12,4.62-2.04,7.28-2.75s5.41-1.06,8.25-1.06ZM194.51,272.42l-7.99.36c-6.04.24-10.53,1.26-13.49,3.06-2.96,1.81-4.44,4.51-4.44,8.12,0,2.9.92,5.1,2.75,6.61,1.83,1.51,4.35,2.26,7.54,2.26,4.91,0,8.71-1.39,11.4-4.17,2.69-2.78,4.1-6.69,4.22-11.72v-4.53Z"/>
        <path class="cls-1" d="M233.47,297.09c-6.92,0-12.26-2.12-16.02-6.35-3.76-4.23-5.64-10.19-5.64-17.88,0-5.26.95-9.75,2.84-13.45,1.89-3.7,4.54-6.51,7.94-8.43,3.4-1.92,7.35-2.88,11.85-2.88,2.31,0,4.45.21,6.43.62,1.98.42,3.74.98,5.28,1.69l-1.42,4.44c-3.31-1.48-6.75-2.22-10.3-2.22-5.56,0-9.85,1.81-12.87,5.41-3.02,3.61-4.53,8.52-4.53,14.73s1.33,10.71,3.99,14.38c2.66,3.67,6.77,5.5,12.34,5.5,2.37,0,4.58-.24,6.66-.71,2.07-.47,3.93-1.09,5.59-1.86v4.53c-1.54.77-3.31,1.38-5.33,1.82-2.01.44-4.29.67-6.83.67Z"/>
        <path class="cls-1" d="M261.78,228.75v21.66c0,2.37-.09,4.62-.27,6.75h.35c1.18-2.6,3.14-4.76,5.86-6.48,2.72-1.71,6.09-2.57,10.12-2.57,5.38,0,9.51,1.39,12.38,4.17,2.87,2.78,4.3,7.13,4.3,13.05v30.89h-5.06v-30.53c0-4.5-1.02-7.81-3.06-9.94-2.04-2.13-5.04-3.2-9.01-3.2-10.42,0-15.62,5.98-15.62,17.93v25.74h-4.97v-67.45h4.97Z"/>
        <path class="cls-1" d="M339.35,283.69c0,4.32-1.58,7.63-4.75,9.94-3.17,2.31-7.68,3.46-13.54,3.46-3.31,0-6.23-.3-8.74-.89-2.52-.59-4.63-1.3-6.35-2.13v-4.88c2.07,1.07,4.44,1.94,7.1,2.62,2.66.68,5.38,1.02,8.17,1.02,4.62,0,7.96-.78,10.03-2.35,2.07-1.57,3.11-3.71,3.11-6.43s-1.08-4.6-3.24-5.99c-2.16-1.39-5.4-2.82-9.72-4.3-2.9-1-5.46-2.01-7.68-3.02-2.22-1-3.95-2.32-5.19-3.95-1.24-1.63-1.86-3.83-1.86-6.61,0-3.79,1.54-6.75,4.62-8.88,3.08-2.13,7.19-3.2,12.34-3.2,2.84,0,5.49.28,7.94.84,2.45.56,4.69,1.26,6.7,2.09l-1.77,4.17c-1.83-.83-3.91-1.51-6.21-2.04-2.31-.53-4.62-.8-6.92-.8-3.73,0-6.63.65-8.7,1.95-2.07,1.3-3.11,3.2-3.11,5.68,0,1.89.5,3.39,1.51,4.48,1.01,1.1,2.46,2.04,4.35,2.84,1.89.8,4.2,1.67,6.92,2.62,2.78.95,5.31,1.95,7.59,3.02,2.28,1.07,4.08,2.43,5.41,4.08,1.33,1.66,2,3.88,2,6.66Z"/>
        <path class="cls-1" d="M369.17,248.1c4.02,0,7.4.93,10.12,2.8,2.72,1.86,4.76,4.42,6.12,7.68,1.36,3.25,2.04,6.98,2.04,11.18v3.55h-33.73c0,6.21,1.45,10.99,4.35,14.33,2.9,3.34,7.07,5.01,12.51,5.01,2.96,0,5.53-.24,7.72-.71,2.19-.47,4.58-1.3,7.19-2.49v4.62c-2.37,1.06-4.7,1.83-7.01,2.31s-5,.71-8.08.71c-7.04,0-12.46-2.16-16.24-6.48-3.79-4.32-5.68-10.21-5.68-17.66,0-4.79.81-9.07,2.44-12.82,1.63-3.76,3.98-6.7,7.06-8.83,3.08-2.13,6.8-3.2,11.18-3.2ZM369.09,252.36c-4.32,0-7.83,1.45-10.52,4.35-2.69,2.9-4.28,7.01-4.75,12.34h28.31c0-4.97-1.05-8.99-3.15-12.07-2.1-3.08-5.4-4.62-9.9-4.62Z"/>
        <path class="cls-1" d="M421.36,248.1c5.38,0,9.5,1.39,12.34,4.17,2.84,2.78,4.26,7.13,4.26,13.05v30.89h-5.06v-30.53c0-4.5-1.02-7.81-3.06-9.94-2.04-2.13-5.05-3.2-9.01-3.2-10.42,0-15.62,5.98-15.62,17.93v25.74h-4.97v-47.22h4.08l.71,8.17h.35c1.24-2.6,3.21-4.76,5.9-6.48,2.69-1.71,6.05-2.57,10.07-2.57Z"/>
        <path class="cls-1" d="M471.06,248.1c4.02,0,7.4.93,10.12,2.8,2.72,1.86,4.76,4.42,6.12,7.68,1.36,3.25,2.04,6.98,2.04,11.18v3.55h-33.73c0,6.21,1.45,10.99,4.35,14.33,2.9,3.34,7.07,5.01,12.51,5.01,2.96,0,5.53-.24,7.72-.71,2.19-.47,4.58-1.3,7.19-2.49v4.62c-2.37,1.06-4.7,1.83-7.01,2.31s-5,.71-8.08.71c-7.04,0-12.46-2.16-16.24-6.48-3.79-4.32-5.68-10.21-5.68-17.66,0-4.79.81-9.07,2.44-12.82,1.63-3.76,3.98-6.7,7.06-8.83,3.08-2.13,6.8-3.2,11.18-3.2ZM470.97,252.36c-4.32,0-7.83,1.45-10.52,4.35-2.69,2.9-4.28,7.01-4.75,12.34h28.31c0-4.97-1.05-8.99-3.15-12.07-2.1-3.08-5.4-4.62-9.9-4.62Z"/>
        <path class="cls-1" d="M523.25,248.1c5.38,0,9.5,1.39,12.34,4.17,2.84,2.78,4.26,7.13,4.26,13.05v30.89h-5.06v-30.53c0-4.5-1.02-7.81-3.06-9.94-2.04-2.13-5.05-3.2-9.01-3.2-10.42,0-15.62,5.98-15.62,17.93v25.74h-4.97v-47.22h4.08l.71,8.17h.35c1.24-2.6,3.21-4.76,5.9-6.48,2.69-1.71,6.05-2.57,10.07-2.57Z"/>
        <path class="cls-1" d="M559.99,228.75v18.64c0,1.66-.03,3.46-.09,5.41-.06,1.95-.15,3.52-.27,4.7h.35c1.18-2.66,3.12-4.9,5.81-6.7,2.69-1.8,6.11-2.71,10.25-2.71,6.09,0,10.83,2.06,14.2,6.17,3.37,4.11,5.06,10.19,5.06,18.24,0,7.46-1.7,13.42-5.1,17.88-3.4,4.47-8.36,6.7-14.87,6.7-3.96,0-7.2-.83-9.72-2.49-2.52-1.66-4.36-3.67-5.55-6.04h-.44l-.89,7.63h-3.82v-67.45h5.06ZM575.44,252.45c-5.5,0-9.45,1.72-11.85,5.15-2.4,3.43-3.59,8.4-3.59,14.91v.62c0,6.39,1.14,11.26,3.42,14.6,2.28,3.34,6.05,5.01,11.32,5.01s8.92-1.76,11.49-5.28c2.57-3.52,3.86-8.53,3.86-15.04,0-13.31-4.88-19.97-14.64-19.97Z"/>
        <path class="cls-1" d="M610.67,231.5c2.37,0,3.55,1.27,3.55,3.82s-1.18,3.9-3.55,3.9-3.37-1.3-3.37-3.9,1.12-3.82,3.37-3.82ZM613.16,248.99v47.22h-4.97v-47.22h4.97Z"/>
        <path class="cls-1" d="M633.84,296.2h-5.06v-67.45h5.06v67.45Z"/>
        <path class="cls-1" d="M666.32,297.09c-6.33,0-11.2-2.03-14.6-6.08-3.4-4.05-5.1-10.01-5.1-17.88s1.79-14.38,5.37-18.64c3.58-4.26,8.5-6.39,14.78-6.39,3.96,0,7.19.86,9.67,2.57,2.49,1.72,4.32,3.88,5.5,6.48h.36c-.06-1.42-.13-2.99-.22-4.7-.09-1.71-.13-3.22-.13-4.53v-19.17h5.06v67.45h-4.08l-.71-8.17h-.27c-1.24,2.48-3.11,4.62-5.59,6.39-2.49,1.78-5.83,2.66-10.03,2.66ZM666.94,292.74c5.44,0,9.32-1.66,11.63-4.97,2.31-3.31,3.46-8.08,3.46-14.29v-.89c0-6.51-1.15-11.49-3.46-14.96-2.31-3.46-6.07-5.19-11.27-5.19s-8.93,1.79-11.54,5.37-3.9,8.68-3.9,15.31,1.24,11.33,3.73,14.64c2.48,3.31,6.27,4.97,11.36,4.97Z"/>
        <path class="cls-1" d="M739.72,248.99v47.22h-4.17l-.71-8.08h-.27c-1.3,2.54-3.3,4.67-5.99,6.39-2.69,1.72-6.05,2.57-10.07,2.57-11.12,0-16.69-5.74-16.69-17.22v-30.89h5.15v30.53c0,4.5,1.01,7.83,3.02,9.98,2.01,2.16,5.03,3.24,9.05,3.24,10.41,0,15.62-6,15.62-18.02v-25.74h5.06Z"/>
        <path class="cls-1" d="M776.55,248.1c5.38,0,9.5,1.39,12.34,4.17,2.84,2.78,4.26,7.13,4.26,13.05v30.89h-5.06v-30.53c0-4.5-1.02-7.81-3.06-9.94-2.04-2.13-5.05-3.2-9.01-3.2-10.42,0-15.62,5.98-15.62,17.93v25.74h-4.97v-47.22h4.08l.71,8.17h.35c1.24-2.6,3.21-4.76,5.9-6.48,2.69-1.71,6.05-2.57,10.07-2.57Z"/>
        <path class="cls-1" d="M825.54,248.1c3.73,0,6.82.71,9.28,2.13,2.45,1.42,4.42,3.4,5.9,5.95h.27l.8-7.19h4.08v48.73c0,6.21-1.58,11.06-4.75,14.56-3.17,3.49-8.36,5.24-15.58,5.24-3.55,0-6.69-.3-9.41-.89-2.72-.59-5.21-1.36-7.46-2.31v-4.88c2.25,1.12,4.81,2.03,7.68,2.71,2.87.68,5.99,1.02,9.36,1.02,5.15,0,8.95-1.36,11.41-4.08,2.45-2.72,3.68-6.42,3.68-11.09v-2.75c0-1.24.03-2.48.09-3.73.06-1.24.12-2.45.18-3.64h-.27c-1.3,3.08-3.31,5.38-6.04,6.92-2.72,1.54-5.98,2.31-9.76,2.31-6.15,0-10.93-2.07-14.33-6.21-3.4-4.14-5.1-10.12-5.1-17.93s1.7-13.68,5.1-18.15c3.4-4.47,8.36-6.7,14.87-6.7ZM826.07,252.54c-5.09,0-8.91,1.79-11.45,5.37-2.54,3.58-3.82,8.62-3.82,15.13s1.26,11.36,3.77,14.73c2.51,3.37,6.17,5.06,10.96,5.06,3.91,0,6.97-.8,9.19-2.4,2.22-1.6,3.8-3.79,4.75-6.57.95-2.78,1.42-5.95,1.42-9.5v-3.02c0-6.04-1.11-10.68-3.33-13.93-2.22-3.25-6.05-4.88-11.49-4.88Z"/>
      </g>
      <g class="cls-3">
        <path class="cls-1" d="M18.38,196.9V32.85h19.76v146.36h53.3v17.69H18.38Z"/>
        <path class="cls-1" d="M187.48,196.9h-73.29V32.85h73.29v17.46h-53.53v52.16h50.32v17.46h-50.32v59.28h53.53v17.69Z"/>
        <path class="cls-1" d="M311.09,32.85l-45.49,164.05h-21.83l-45.03-164.05h20.68l28.49,109.37c1.38,5.36,2.64,10.84,3.79,16.43,1.15,5.59,2.1,10.99,2.87,16.2.76-5.21,1.76-10.61,2.99-16.2,1.22-5.59,2.6-11.22,4.14-16.89l28.72-108.91h20.68Z"/>
        <path class="cls-1" d="M402.77,196.9h-73.29V32.85h73.29v17.46h-53.53v52.16h50.32v17.46h-50.32v59.28h53.53v17.69Z"/>
        <path class="cls-1" d="M432.41,196.9V32.85h19.76v146.36h53.3v17.69h-73.06Z"/>
      </g>
      <path class="cls-2" d="M564.37,146.4l-18.6-7.4-7.9-18.5,7.4-18.6,18.5-7.9,18.6,7.4,7.9,18.5-7.4,18.6-18.5,7.9ZM552.07,132.4l12.2,4.9,12-5.2,4.9-12.2-5.2-12.1-12.2-4.9-12.1,5.2-4.9,12.2,5.3,12.1Z"/>
      <path class="cls-2" d="M563.97,86.8c-15,0-27.2-12.2-27.2-27.2s12.2-27.2,27.2-27.2,27.2,12.2,27.2,27.2-12.2,27.2-27.2,27.2ZM563.97,40.9c-10.3,0-18.7,8.4-18.7,18.7s8.4,18.7,18.7,18.7,18.7-8.4,18.7-18.7c.1-10.3-8.3-18.7-18.7-18.7Z"/>
      <path class="cls-2" d="M585.97,197.4h-43.9v-43.9h43.9v43.9ZM549.07,190.3h29.8v-29.8h-29.8v29.8Z"/>
      <g class="cls-3">
        <path class="cls-2" d="M724.23,32.85v110.74c0,18.08-4.14,31.86-12.41,41.36-8.27,9.5-20.83,14.25-37.68,14.25s-28.65-4.71-37.22-14.13c-8.58-9.42-12.87-23.24-12.87-41.47V32.85h19.76v110.97c0,12.87,2.6,22.37,7.81,28.49,5.21,6.13,12.87,9.19,22.98,9.19s17.81-3.14,22.63-9.42c4.83-6.28,7.24-15.77,7.24-28.49V32.85h19.76Z"/>
        <path class="cls-2" d="M794.07,32.85c17.77,0,30.86,4.06,39.29,12.18,8.42,8.12,12.64,20.22,12.64,36.3s-4.25,28.34-12.75,37.68c-8.5,9.35-22.02,14.02-40.55,14.02h-13.1v63.87h-19.76V32.85h34.23ZM793.15,50.09h-13.56v65.71h11.03c12.25,0,21.14-2.64,26.65-7.93,5.51-5.28,8.27-13.98,8.27-26.08,0-11.18-2.61-19.26-7.81-24.24-5.21-4.98-13.41-7.47-24.58-7.47Z"/>
      </g>
    </g>
  </g>
</svg>