<svg id="Layer_1" data-name="Layer 1" xmlns="http://www.w3.org/2000/svg" viewBox="0 0 566.187 208.435"><defs><style>.cls-1{fill:#c6ced1;}.cls-2{fill:#c3161c;}.cls-3{fill:#231f20;}</style></defs><path class="cls-1" d="M160,17.492H29.634V161.6H173.739V17.492ZM146.255,134.114H57.121V44.976h89.134Z" transform="translate(-12.275 -9.828)"/><path class="cls-1" d="M281.958,12.044,231.015,33.627l-22.9,56.551,23.8,56.181,56.554,22.907,56.186-23.8,22.9-56.554-23.8-56.186L287.2,9.828Zm5.481,27.534c7.2,2.913,28.249,11.438,35.448,14.354C325.914,61.085,334.774,82,337.8,89.148c-2.914,7.2-11.439,28.252-14.351,35.45l-35.224,14.917c-7.2-2.915-28.251-11.443-35.447-14.359-3.027-7.151-11.887-28.064-14.917-35.215,2.915-7.2,11.441-28.247,14.354-35.445,7.151-3.03,28.067-11.889,35.222-14.918" transform="translate(-12.275 -9.828)"/><path class="cls-1" d="M394.739,89.543a79.039,79.039,0,1,0,79.04-79.038,79.126,79.126,0,0,0-79.04,79.038m27.485,0A51.554,51.554,0,1,1,473.779,141.1a51.613,51.613,0,0,1-51.555-51.554" transform="translate(-12.275 -9.828)"/><path class="cls-2" d="M159.975,75.037A14.543,14.543,0,1,1,145.432,89.58a14.544,14.544,0,0,1,14.543-14.543" transform="translate(-12.275 -9.828)"/><path class="cls-2" d="M204.544,75.037A14.543,14.543,0,1,1,190,89.58a14.545,14.545,0,0,1,14.543-14.543" transform="translate(-12.275 -9.828)"/><path class="cls-2" d="M115.384,75.037A14.543,14.543,0,1,1,100.841,89.58a14.543,14.543,0,0,1,14.543-14.543" transform="translate(-12.275 -9.828)"/><polygon class="cls-2" points="0 60.648 0 98.774 31.995 79.711 0 60.648"/><path class="cls-3" d="M44.267,184.738l-.769,2.617c-.155.5-.308.654-.845.654h-7.47v6.313h6.428c.694,0,.809.116.809.808v2.579c0,.693-.115.809-.809.809H35.183v7.5h8.084c.691,0,.809.115.809.808v2.579c0,.731-.078.808-.809.808H30.719c-.732,0-.809-.077-.809-.808V184.623c0-.732.077-.809.809-.809H43.576c.576,0,.769.115.769.423a3.152,3.152,0,0,1-.078.5" transform="translate(-12.275 -9.828)"/><path class="cls-3" d="M69.777,191.82l-1.192,3.116c-.079.233-.195.348-.309.348a.982.982,0,0,1-.269-.076,4.72,4.72,0,0,0-1.541-.31c-.807,0-1.77.578-2.924,1.849v12.817c0,.577-.077.654-.653.654H59.308c-.577,0-.655-.077-.655-.654v-11.7a10.952,10.952,0,0,0-1.155-5.351,1.142,1.142,0,0,1-.077-.346c0-.153.154-.307.385-.384l3.117-1.117c.31-.116.31-.116.464-.116.46,0,1.039,1.155,1.463,3,.808-.923.923-1.117,1.307-1.5a4.936,4.936,0,0,1,3.5-1.5c1.154,0,2.193.425,2.193.847a2.039,2.039,0,0,1-.077.424" transform="translate(-12.275 -9.828)"/><path class="cls-3" d="M106.3,192.243l-5.312,17.744c-.154.5-.194.538-.732.538H97.059c-.539,0-.577-.038-.693-.614l-1.81-9.739a18.694,18.694,0,0,1-.268-1.964l-.154-1.422-.116-.924c-.308,2.118-.308,2.617-.693,4.31l-2.271,9.779c-.114.536-.191.574-.692.574H87.205c-.539,0-.539-.038-.691-.574l-4.659-17.708a1.7,1.7,0,0,1-.077-.423c0-.232.154-.309.578-.385l3.386-.5c.04-.04.232-.04.308-.04.268,0,.387.117.464.54l1.807,8.853c.194.961.385,2.232.809,6.042a51.638,51.638,0,0,1,.693-5.541l1.924-9.007c.116-.539.154-.578.693-.578H95.9c.5,0,.578.077.693.578l1.732,8.659c.192.887.579,3.85.77,5.889a55.389,55.389,0,0,1,.846-6.39l1.964-8.5c.114-.423.193-.54.424-.54a.915.915,0,0,1,.345.04l3.155.5c.426.076.578.192.578.424,0,.076-.038.076-.114.384" transform="translate(-12.275 -9.828)"/><path class="cls-3" d="M133.651,209.525l-3,1.194a1.034,1.034,0,0,1-.462.115c-.347,0-.732-.732-1.155-2.271a6.252,6.252,0,0,1-4.927,2.194,5.406,5.406,0,0,1-5.773-5.812c0-3.426,1.847-5.427,5.734-6.2a24.794,24.794,0,0,1,4.311-.346v-1.194c0-2.194-.615-2.886-2.539-2.886a12.584,12.584,0,0,0-4.313,1,1.017,1.017,0,0,1-.423.115c-.191,0-.308-.115-.384-.384l-.809-2.31a1.582,1.582,0,0,1-.078-.424c0-.809,3.5-1.771,6.583-1.771,3.041,0,5.121,1,6,2.965a7.125,7.125,0,0,1,.539,3.194v7.852a8.592,8.592,0,0,0,.884,4.157.982.982,0,0,1,.119.424.447.447,0,0,1-.31.384m-5.273-7.93c-3.849,0-5.388.849-5.388,3.08a2.527,2.527,0,0,0,2.463,2.656,3.976,3.976,0,0,0,2.925-1.5Z" transform="translate(-12.275 -9.828)"/><path class="cls-3" d="M161.742,193.167l-1.348,2.463a.464.464,0,0,1-.346.27.617.617,0,0,1-.385-.155,4.864,4.864,0,0,0-3.272-1.307c-2.617,0-3.809,2-3.809,6.466,0,4.195,1.192,6.081,3.848,6.081a5.56,5.56,0,0,0,3.155-1.077.812.812,0,0,1,.424-.193c.117,0,.231.116.308.269l.924,2.349a.953.953,0,0,1,.114.46c0,.962-2.962,2.08-5.578,2.08-5.237,0-8.276-3.581-8.276-9.777,0-6.543,3.386-10.547,8.89-10.547,2.348,0,5.465,1.233,5.465,2.195a1.014,1.014,0,0,1-.114.423" transform="translate(-12.275 -9.828)"/><path class="cls-3" d="M189.792,210.218h-3.58c-.577,0-.654-.077-.654-.654V197.709c0-2.35-.577-3.233-2.116-3.233a4.628,4.628,0,0,0-3.309,1.578v13.51c0,.577-.078.654-.655.654H175.9c-.576,0-.653-.077-.653-.654v-25.75c0-.54.039-.578.576-.693l3.581-.731a1.168,1.168,0,0,1,.346-.039c.268,0,.386.192.386.655v9.776a7.367,7.367,0,0,1,5.31-2.233,4.837,4.837,0,0,1,4.235,2.08,7.127,7.127,0,0,1,.769,3.963v12.972c0,.577-.077.654-.655.654" transform="translate(-12.275 -9.828)"/><path class="cls-3" d="M216.917,209.1a6.208,6.208,0,0,1-4.733,1.771,14.676,14.676,0,0,1-6.543-1.617c-.693-.347-.848-.463-.848-.732a1.356,1.356,0,0,1,.118-.462l.884-2.345c.114-.272.23-.387.385-.387a.887.887,0,0,1,.346.115,11.276,11.276,0,0,0,5.234,1.655,2.009,2.009,0,0,0,2.233-2c0-1.079-.462-1.463-2.963-2.425-2.465-.923-3.311-1.425-4-2.079a5.1,5.1,0,0,1-1.541-3.771c0-3.7,2.849-6.275,6.852-6.275,2.426,0,5.89,1.039,5.89,1.772a1.021,1.021,0,0,1-.115.423l-.962,2.192c-.118.234-.233.348-.386.348a1.208,1.208,0,0,1-.308-.076,9.979,9.979,0,0,0-3.887-1c-1.579,0-2.463.691-2.463,1.962,0,1.039.423,1.427,2.539,2.233,2.85,1.118,3.659,1.538,4.465,2.308a5.492,5.492,0,0,1,1.578,3.927,6.519,6.519,0,0,1-1.771,4.465" transform="translate(-12.275 -9.828)"/><path class="cls-3" d="M247.048,202.02H236.693c.078,3.31,1.425,4.85,4.274,4.85a9.525,9.525,0,0,0,4.386-1.195,1.044,1.044,0,0,1,.5-.154c.194,0,.308.116.423.348l.962,2.31a.7.7,0,0,1,.115.423c0,.423-.306.654-1.577,1.192a13.119,13.119,0,0,1-5.311,1.079,8.241,8.241,0,0,1-5.736-1.886c-1.847-1.695-2.885-4.619-2.885-8.121,0-6.2,3.348-10.317,8.429-10.317s7.621,3.5,7.621,10.509c0,.77-.155.962-.847.962m-7.083-7.968c-1.962,0-2.848,1.232-3.194,4.388h6.005c-.077-3.194-.848-4.388-2.811-4.388" transform="translate(-12.275 -9.828)"/><path class="cls-3" d="M277.215,210.218h-3.581c-.578,0-.655-.077-.655-.654V197.709c0-2.271-.652-3.233-2.19-3.233-1.12,0-2,.422-3.351,1.578v13.51c0,.577-.078.654-.654.654h-3.579c-.577,0-.657-.077-.657-.654V196.63a9.8,9.8,0,0,0-.808-4.195.854.854,0,0,1-.114-.384.444.444,0,0,1,.308-.347l3.425-1.27a1.746,1.746,0,0,1,.386-.077c.461,0,.961.962,1.386,2.656a7.876,7.876,0,0,1,5.772-2.464c3.425,0,4.967,1.886,4.967,6.081v12.934c0,.577-.078.654-.655.654" transform="translate(-12.275 -9.828)"/><path class="cls-3" d="M307.458,202.02H297.1c.079,3.31,1.425,4.85,4.274,4.85a9.525,9.525,0,0,0,4.386-1.195,1.041,1.041,0,0,1,.5-.154c.194,0,.307.116.422.348l.964,2.31a.708.708,0,0,1,.114.423c0,.423-.306.654-1.577,1.192a13.12,13.12,0,0,1-5.312,1.079,8.241,8.241,0,0,1-5.735-1.886c-1.848-1.695-2.885-4.619-2.885-8.121,0-6.2,3.347-10.317,8.43-10.317s7.62,3.5,7.62,10.509c0,.77-.154.962-.847.962m-7.084-7.968c-1.961,0-2.848,1.232-3.192,4.388h6c-.077-3.194-.848-4.388-2.812-4.388" transform="translate(-12.275 -9.828)"/><path class="cls-3" d="M337.625,210.218h-3.581c-.578,0-.654-.077-.654-.654V197.709c0-2.271-.654-3.233-2.194-3.233-1.115,0-2,.422-3.349,1.578v13.51c0,.577-.078.654-.654.654h-3.579c-.576,0-.654-.077-.654-.654V196.63a9.781,9.781,0,0,0-.811-4.195.864.864,0,0,1-.113-.384.442.442,0,0,1,.308-.347l3.425-1.27a1.728,1.728,0,0,1,.385-.077c.461,0,.962.962,1.387,2.656a7.875,7.875,0,0,1,5.771-2.464c3.426,0,4.967,1.886,4.967,6.081v12.934c0,.577-.077.654-.654.654" transform="translate(-12.275 -9.828)"/><path class="cls-3" d="M367.866,208.1a6.9,6.9,0,0,1-5.466,2.773,5.067,5.067,0,0,1-3.924-1.694c-.539,1.308-.732,1.578-1.116,1.578a2.058,2.058,0,0,1-.54-.076l-3.118-.77c-.23-.039-.347-.156-.347-.309a.894.894,0,0,1,.117-.346,8.193,8.193,0,0,0,.73-4.042v-21.4c0-.5.04-.578.577-.693l3.581-.731a1.172,1.172,0,0,1,.346-.039c.269,0,.386.192.386.655v9.237a7.647,7.647,0,0,1,4.656-1.694c4,0,6.314,3.541,6.314,9.662,0,3.541-.654,5.965-2.2,7.889m-5.811-13.662a4.8,4.8,0,0,0-2.963,1.23V206.33a3.793,3.793,0,0,0,2.271.808c2.348,0,3.81-2.54,3.81-6.7,0-3.888-1.116-6-3.118-6" transform="translate(-12.275 -9.828)"/><path class="cls-3" d="M389.838,210.22h-3.582c-.578,0-.655-.079-.655-.656V194.783h-2.924c-.576,0-.654-.077-.654-.655v-2.269c0-.578.078-.655.654-.655h7.161c.576,0,.653.077.653.655v17.7c0,.577-.077.656-.653.656m-1.926-21.556a3.117,3.117,0,1,1,3.116-3.118,3.113,3.113,0,0,1-3.116,3.118" transform="translate(-12.275 -9.828)"/><path class="cls-3" d="M411.231,210.873c-2.234,0-3.772-.964-4.388-2.773-.308-.885-.348-1.346-.348-4.694V183.852a.657.657,0,0,1,.578-.731l3.466-.693a2.106,2.106,0,0,1,.461-.077c.269,0,.386.192.386.655v20.052a11.6,11.6,0,0,0,.076,2.541.89.89,0,0,0,.961.77,4.044,4.044,0,0,0,1.27-.231.886.886,0,0,1,.271-.038.292.292,0,0,1,.307.23l.77,3.156.038.154a.287.287,0,0,1,.039.154c0,.5-2.041,1.079-3.887,1.079" transform="translate(-12.275 -9.828)"/><path class="cls-3" d="M442.861,209.371l-3.195,1.271a.854.854,0,0,1-.382.115c-.386,0-.81-.808-1.041-1.964a8.479,8.479,0,0,1-5.388,2.08c-4,0-6.272-3.581-6.272-9.815,0-3.773.689-6.313,2.268-8.2a6.206,6.206,0,0,1,4.888-2.31,7.28,7.28,0,0,1,3.812,1.078v-7.813c0-.5.038-.578.579-.693l3.579-.731.346-.039c.268,0,.383.192.383.655v22.477a5.962,5.962,0,0,0,.7,3.31,1.865,1.865,0,0,1,.076.232q0,.231-.349.346m-5.31-14.241a6.005,6.005,0,0,0-2.77-.692c-2.425,0-3.313,1.693-3.313,6.351,0,4.464.888,6.311,3,6.311a4.148,4.148,0,0,0,3.08-1.346Z" transform="translate(-12.275 -9.828)"/><path class="cls-3" d="M474.184,209.949l-3.234.732a1.317,1.317,0,0,1-.423.076c-.424,0-.846-.77-1.153-2.117a6.808,6.808,0,0,1-5.313,2.233,5.517,5.517,0,0,1-4.349-1.655c-1.078-1.195-1.309-2.31-1.309-5.851V192.089c0-.539.04-.578.577-.693l3.58-.769a.843.843,0,0,1,.309-.039c.307,0,.424.154.424.616v11.931a5.9,5.9,0,0,0,.344,2.811,2.2,2.2,0,0,0,2,1.039,4.846,4.846,0,0,0,3.193-1.386v-13.51c0-.539.04-.578.576-.693l3.583-.769.382-.039c.232,0,.348.192.348.616v14.164a7.609,7.609,0,0,0,.731,3.926.739.739,0,0,1,.117.346c0,.154-.117.232-.387.309" transform="translate(-12.275 -9.828)"/><path class="cls-3" d="M504.7,210.218h-3.578c-.578,0-.655-.077-.655-.654V197.709c0-2.271-.652-3.233-2.194-3.233-1.115,0-2,.422-3.349,1.578v13.51c0,.577-.076.654-.652.654h-3.58c-.576,0-.655-.077-.655-.654V196.63a9.8,9.8,0,0,0-.809-4.195.842.842,0,0,1-.114-.384.444.444,0,0,1,.307-.347l3.426-1.27a1.71,1.71,0,0,1,.384-.077c.462,0,.963.962,1.387,2.656a7.876,7.876,0,0,1,5.773-2.464c3.424,0,4.966,1.886,4.966,6.081v12.934c0,.577-.077.654-.657.654" transform="translate(-12.275 -9.828)"/><path class="cls-3" d="M536.1,192.667a9.96,9.96,0,0,0-.847,4.349v5.7c0,2.08.037,4.2.117,6.275.036,1.039.076,1.924.076,2.423,0,4.389-2.58,6.853-7.237,6.853-3.272,0-7.814-1.233-7.814-2.118a1.718,1.718,0,0,1,.078-.384l.808-2.656c.078-.232.231-.385.424-.385a.729.729,0,0,1,.346.115,13.9,13.9,0,0,0,5.7,1.425c2.155,0,2.962-.886,2.962-3.195a24.75,24.75,0,0,0-.189-2.5,7.349,7.349,0,0,1-4.467,1.424c-3.889,0-6.313-3.618-6.313-9.354,0-6.2,2.735-10.084,7.043-10.084a6.059,6.059,0,0,1,4.428,1.772c.462-1.117,1.04-1.887,1.346-1.887a1.166,1.166,0,0,1,.387.077l3.037,1.077c.233.116.348.234.348.386,0,.115,0,.115-.23.693m-5.579,3.04a4.3,4.3,0,0,0-2.737-1.116c-2.037,0-3.153,2.079-3.153,5.852,0,3.694,1,5.657,2.848,5.657a4.037,4.037,0,0,0,3.042-1.308Z" transform="translate(-12.275 -9.828)"/><path class="cls-3" d="M347.954,101.9H338.39c-.741,0-.8-.073-.638-.79l.5-2.146c.156-.679.3-.793,1-.793h2.109L345.6,79.8h-2.107c-.7,0-.793-.113-.636-.792l.5-2.146c.162-.714.26-.788,1-.788h9.563c.7,0,.793.111.638.788l-.5,2.146c-.156.679-.3.792-1,.792h-2.106l-4.244,18.375h2.108c.7,0,.8.114.636.793l-.494,2.146c-.159.679-.3.79-1,.79" transform="translate(-12.275 -9.828)"/><path class="cls-3" d="M377.553,101.9h-3.631c-.588,0-.65-.073-.52-.64l2.681-11.6c.512-2.223.067-3.165-1.494-3.165-1.135,0-2.126.414-3.755,1.544l-3.053,13.218c-.129.567-.223.64-.809.64h-3.631c-.583,0-.647-.073-.515-.64l2.923-12.653a8.833,8.833,0,0,0,.127-4.1.725.725,0,0,1-.032-.377.61.61,0,0,1,.392-.338l3.758-1.242a2.062,2.062,0,0,1,.409-.076c.47,0,.76.942.807,2.6a10.157,10.157,0,0,1,6.413-2.41c3.472,0,4.607,1.846,3.661,5.95l-2.921,12.653c-.132.567-.225.64-.81.64" transform="translate(-12.275 -9.828)"/><path class="cls-3" d="M398.484,101.9h-3.63c-.587,0-.647-.073-.518-.64L397.674,86.8H394.71c-.588,0-.647-.077-.519-.641l.515-2.221c.129-.565.226-.64.812-.64h7.259c.585,0,.649.075.517.64l-4,17.321c-.132.567-.226.64-.812.64M401.4,80.813a2.39,2.39,0,0,1-2.451-3.087,4.165,4.165,0,0,1,3.9-3.013,2.391,2.391,0,0,1,2.419,3.051,4.124,4.124,0,0,1-3.866,3.049" transform="translate(-12.275 -9.828)"/><path class="cls-3" d="M424.918,101.9a14.7,14.7,0,0,1-4.092.64c-2.029,0-3.363-.64-3.968-1.921-.446-.94-.424-1.883.064-3.992l2.267-9.826H416.5c-.585,0-.644-.077-.515-.641l.513-2.221c.13-.565.226-.64.812-.64H420l1.1-4.744c.121-.529.217-.6.782-.679l3.706-.491h.351c.273,0,.355.152.249.6l-1.227,5.31h4.451c.508,0,.648.075.578.375a1.22,1.22,0,0,1-.115.34l-1.022,2.222c-.221.451-.368.565-.833.565h-3.866l-2.114,9.149c-.459,2-.283,2.412.889,2.412a6.772,6.772,0,0,0,2.725-.641,1.319,1.319,0,0,1,.37-.076c.195,0,.277.151.3.377l.017,2.635a1.052,1.052,0,0,1-.019.416c-.085.374-.354.527-1.4.827" transform="translate(-12.275 -9.828)"/><path class="cls-3" d="M444.014,101.9h-3.629c-.588,0-.649-.073-.52-.64L443.2,86.8h-2.964c-.588,0-.646-.077-.517-.641l.514-2.221c.128-.565.225-.64.812-.64h7.26c.584,0,.647.075.515.64l-4,17.321c-.132.567-.225.64-.811.64m2.918-21.088a2.392,2.392,0,0,1-2.453-3.087,4.166,4.166,0,0,1,3.9-3.013,2.39,2.39,0,0,1,2.418,3.051,4.124,4.124,0,0,1-3.864,3.049" transform="translate(-12.275 -9.828)"/><path class="cls-3" d="M474.352,101.223l-3.315,1.168a1.248,1.248,0,0,1-.493.113c-.354,0-.577-.715-.657-2.222a8.1,8.1,0,0,1-5.493,2.147c-3.594,0-5.345-2.222-4.544-5.685.772-3.354,3.1-5.31,7.213-6.064a27.553,27.553,0,0,1,4.454-.339l.266-1.168c.5-2.147.03-2.824-1.922-2.824a15.1,15.1,0,0,0-4.6.981,1.253,1.253,0,0,1-.458.112c-.192,0-.287-.112-.3-.376l-.3-2.261a1.6,1.6,0,0,1,.017-.414c.185-.79,3.954-1.732,7.077-1.732,3.085,0,4.964.978,5.422,2.9a6.436,6.436,0,0,1-.178,3.127l-1.774,7.681a7.582,7.582,0,0,0-.038,4.067.91.91,0,0,1,.02.413.589.589,0,0,1-.4.377m-3.559-7.758c-3.9,0-5.656.83-6.16,3.014a1.943,1.943,0,0,0,1.9,2.6,5.215,5.215,0,0,0,3.3-1.47Z" transform="translate(-12.275 -9.828)"/><path class="cls-3" d="M499.031,101.9a14.722,14.722,0,0,1-4.092.64c-2.029,0-3.364-.64-3.968-1.921-.446-.94-.424-1.883.063-3.992L493.3,86.8h-2.695c-.584,0-.644-.077-.513-.641l.512-2.221c.13-.565.225-.64.812-.64h2.691l1.1-4.744c.122-.529.217-.6.781-.679l3.706-.491h.351c.274,0,.356.152.249.6l-1.226,5.31h4.45c.508,0,.649.075.579.375a1.168,1.168,0,0,1-.118.34l-1.019,2.222c-.225.451-.368.565-.834.565h-3.864l-2.115,9.149c-.458,2-.284,2.412.889,2.412a6.789,6.789,0,0,0,2.726-.641,1.32,1.32,0,0,1,.369-.076c.195,0,.276.151.3.377l.016,2.635a1.093,1.093,0,0,1-.019.416c-.085.374-.357.527-1.4.827" transform="translate(-12.275 -9.828)"/><path class="cls-3" d="M518.128,101.9H514.5c-.588,0-.649-.073-.519-.64L517.316,86.8h-2.964c-.587,0-.648-.077-.518-.641l.515-2.221c.128-.565.225-.64.811-.64h7.262c.583,0,.646.075.514.64l-4,17.321c-.131.567-.225.64-.81.64m2.914-21.088a2.39,2.39,0,0,1-2.449-3.087,4.162,4.162,0,0,1,3.9-3.013,2.392,2.392,0,0,1,2.42,3.051,4.125,4.125,0,0,1-3.868,3.049" transform="translate(-12.275 -9.828)"/><path class="cls-3" d="M553.011,84.241,542.4,102.127c-.258.454-.345.491-.853.491h-3.2c-.507,0-.576-.037-.628-.491l-2.235-17.886a1.024,1.024,0,0,1-.022-.416c.054-.224.235-.338.712-.376l3.911-.376a2.5,2.5,0,0,1,.324-.038c.234,0,.322.113.344.529l.51,8.622c.1,1.43.09,3.164.035,5.421.891-1.994,1.875-4.065,2.62-5.421l4.721-8.622c.213-.416.356-.529.591-.529a1.411,1.411,0,0,1,.306.038l3.153.376c.419.038.549.152.5.376a2.318,2.318,0,0,1-.174.416" transform="translate(-12.275 -9.828)"/><path class="cls-3" d="M576.828,93.88h-10.5c-.673,3.24.349,4.746,3.234,4.746a11.657,11.657,0,0,0,4.72-1.17,1.308,1.308,0,0,1,.545-.148c.2,0,.285.11.351.338l.452,2.261a.608.608,0,0,1,.025.412c-.1.415-.464.64-1.874,1.166a15.523,15.523,0,0,1-5.631,1.056c-2.5,0-4.3-.64-5.389-1.844-1.492-1.658-1.886-4.52-1.094-7.947,1.4-6.062,5.728-10.092,10.88-10.092s6.937,3.427,5.356,10.282c-.172.752-.372.94-1.077.94m-5.383-7.8c-1.99,0-3.166,1.205-4.232,4.293h6.093c.643-3.125.129-4.293-1.861-4.293" transform="translate(-12.275 -9.828)"/></svg>